# xmcd
#
# Track frame offsets: 
#        183
#        23863
#        49225
#        77645
#        99168
#        120863
#        141503
#        167745
#
# Disc length: 2543 seconds
#
# Revision: 42
# Processed by: cddbd v1.5.2PL0 Copyright (c) Steve Scherf et al.
# Submitted via: ExactAudioCopy v1.3
#
DISCID=5d09ed08
DTITLE=Miles Davis - Tutu
DYEAR=1986
DGENRE=Jazz
TTITLE0=Tutu
TTITLE1=Tomaas
TTITLE2=Portia
TTITLE3=Splatch
TTITLE4=Backyard Ritual
TTITLE5=Perfect Way
TTITLE6=Don't Lose Your Mind
TTITLE7=Full Nelson
EXTD=YEAR: 1986
EXTT0=
EXTT1=
EXTT2=
EXTT3=
EXTT4=
EXTT5=
EXTT6=
EXTT7=
PLAYORDER=
